<?xml version="1.0" encoding="UTF-8"?><svg id="Capa_2" xmlns="http://www.w3.org/2000/svg" viewBox="0 0 527.73 166.82"><defs><style>.cls-1{fill:#fff;}</style></defs><g id="Capa_1-2"><path class="cls-1" d="m130.13,35.16C123.93,14.83,105,0,82.66,0s-41.52,15.03-47.58,35.58C14.8,41.8,0,60.71,0,83.01s14.68,41.06,34.83,47.37c5.79,20.98,25.04,36.44,47.83,36.44s41.8-15.26,47.72-36.02c20.9-5.83,36.28-25.05,36.28-47.79s-15.5-42.1-36.53-47.85Zm-4.17,14.44c0,11.38-4.4,21.74-11.6,29.48-4.93-4.1-10.66-7.27-16.92-9.23-1.91-6.92-5.28-13.25-9.77-18.61,7.73-7.15,18.05-11.53,29.38-11.53,2.71,0,5.36.25,7.93.73.64,2.95.98,6.02.98,9.16Zm-27.11,27.45c3.93,1.59,7.58,3.74,10.84,6.36-3.29,2.64-6.98,4.81-10.95,6.39.31-2.22.47-4.49.47-6.79,0-2.02-.12-4.01-.36-5.96Zm-16.19,15.85c-2.7,0-5.35-.25-7.92-.73-.64-2.95-.98-6.02-.98-9.16,0-2.85.28-5.64.81-8.34,2.62-.5,5.33-.76,8.09-.76,3.26,0,6.43.36,9.49,1.05.49,2.61.75,5.3.75,8.05,0,3.04-.31,6.01-.91,8.88-3.01.66-6.13,1.01-9.33,1.01Zm7.31,5.77c-1.62,4.17-3.87,8.03-6.64,11.46-2.73-3.38-4.95-7.17-6.57-11.27,1.94.23,3.9.35,5.9.35,2.48,0,4.92-.18,7.31-.54Zm-13.53-30.67c1.64-4.42,3.98-8.5,6.89-12.11,2.95,3.66,5.32,7.81,6.96,12.3-2.49-.38-5.04-.58-7.63-.58-2.11,0-4.18.13-6.22.39Zm6.22-61.69c18.29,0,33.96,11.39,40.3,27.45-1.94-.23-3.91-.35-5.91-.35-13.01,0-24.87,5.03-33.72,13.25-8.85-8.22-20.71-13.25-33.72-13.25-2.48,0-4.92.18-7.31.54,6.28-16.16,22.01-27.64,40.36-27.64Zm-42.37,34.41c3-.66,6.12-1.01,9.32-1.01,11.33,0,21.65,4.38,29.38,11.53-4.4,5.26-7.73,11.43-9.66,18.19-6.82,1.91-13.06,5.24-18.36,9.65-7.19-7.74-11.6-18.1-11.6-29.48,0-3.04.32-6.01.92-8.88Zm27.7,49.62c-4.51-1.62-8.67-3.98-12.35-6.93,3.65-2.93,7.77-5.27,12.24-6.9-.29,2.13-.43,4.3-.43,6.5,0,2.49.18,4.94.54,7.33Zm-34.57,32.83c-15.88-6.42-27.11-22-27.11-40.16s11.28-33.8,27.22-40.2c-.31,2.22-.47,4.49-.47,6.79,0,13.05,5.06,24.95,13.33,33.81-8.27,8.86-13.33,20.75-13.33,33.8,0,2.02.12,4.01.36,5.96Zm5.95-5.96c0-11.38,4.41-21.73,11.6-29.47,5.37,4.47,11.7,7.83,18.62,9.72,1.96,6.42,5.19,12.29,9.4,17.32-7.73,7.15-18.05,11.53-29.38,11.53-3.26,0-6.43-.36-9.49-1.05-.49-2.61-.75-5.3-.75-8.05Zm43.29,43.3c-18.66,0-34.61-11.87-40.68-28.47,2.49.38,5.04.58,7.63.58,13.01,0,24.87-5.03,33.72-13.26,8.85,8.23,20.71,13.26,33.72,13.26,2.11,0,4.18-.13,6.22-.39-6.12,16.5-22.01,28.28-40.61,28.28Zm42.49-34.96c-2.63.5-5.33.76-8.1.76-11.33,0-21.65-4.38-29.38-11.53,4.3-5.14,7.58-11.16,9.52-17.74,6.36-1.95,12.18-5.15,17.17-9.3,7.2,7.74,11.6,18.09,11.6,29.47,0,2.85-.28,5.64-.81,8.34Zm6.69-1.84c.29-2.13.43-4.3.43-6.5,0-13.05-5.06-24.94-13.33-33.8,8.27-8.86,13.33-20.76,13.33-33.81,0-2.49-.18-4.94-.54-7.33,16.67,6.03,28.62,22.02,28.62,40.74s-11.9,34.64-28.51,40.7Z"/><path class="cls-1" d="m293.84,79.9h14.4v36.73l-.36.3c-8.84,7.46-21.55,11.74-34.88,11.74-28.5,0-49.19-19.88-49.19-47.25s20.8-47.26,49.45-47.26c14.8,0,27.07,4.94,35.5,14.29l.63.7-9.37,9.38-.71-.68c-7.2-6.95-15.31-10.19-25.53-10.19-20.31,0-35.05,14.2-35.05,33.76s14.69,33.75,34.92,33.75c7.74,0,14.35-1.76,20.19-5.37v-29.9Z"/><rect class="cls-1" x="330.91" y="35.2" width="14.92" height="92.43"/><polygon class="cls-1" points="451.14 35.2 410.6 127.63 396.5 127.63 355.83 35.2 371.97 35.2 403.87 108 436.04 35.2 451.14 35.2"/><polygon class="cls-1" points="527.73 114.39 527.73 127.63 460.1 127.63 460.1 35.2 525.92 35.2 525.92 48.44 475.02 48.44 475.02 74.22 520.37 74.22 520.37 87.2 475.02 87.2 475.02 114.39 527.73 114.39"/></g></svg>